<svg width="1023" height="410" viewBox="0 0 1023 410" fill="none" xmlns="http://www.w3.org/2000/svg">
<path d="M242.747 226.2V250H171.907V150.6H241.487V174.4H199.207V188.4H235.327V210.52H199.207V226.2H242.747ZM342.942 201.14V250H315.642V150.6H336.922L376.822 201.14V150.6H404.122V250H382.422L342.942 201.14ZM504.349 150.6H534.869L566.509 250H538.789L532.769 230.54H506.309L500.429 250H472.569L504.349 150.6ZM528.429 212.34L519.609 177.34L510.369 212.34H528.429ZM630.208 229.7L675.288 174.4H632.308V150.6H708.188V170.9L665.908 226.2H709.028V250H630.208V229.7ZM853.098 226.2V250H782.258V150.6H851.838V174.4H809.558V188.4H845.678V210.52H809.558V226.2H853.098ZM953.293 201.14V250H925.993V150.6H947.273L987.173 201.14V150.6H1014.47V250H992.773L953.293 201.14ZM456.627 306.24C454.355 306.24 452.243 305.76 450.291 304.8C448.339 303.808 446.643 302.48 445.203 300.816C443.763 299.152 442.643 297.296 441.843 295.248C441.075 293.2 440.691 291.088 440.691 288.912C440.691 286.608 441.075 284.432 441.843 282.384C442.643 280.304 443.747 278.464 445.155 276.864C446.563 275.264 448.227 274 450.147 273.072C452.067 272.144 454.163 271.68 456.435 271.68C459.795 271.68 462.531 272.368 464.643 273.744C466.755 275.12 468.355 276.912 469.443 279.12L466.851 280.848C465.763 278.736 464.307 277.184 462.483 276.192C460.659 275.2 458.627 274.704 456.387 274.704C454.499 274.704 452.787 275.104 451.251 275.904C449.747 276.704 448.451 277.776 447.363 279.12C446.275 280.464 445.443 281.984 444.867 283.68C444.323 285.376 444.051 287.136 444.051 288.96C444.051 290.88 444.371 292.704 445.011 294.432C445.651 296.128 446.563 297.648 447.747 298.992C448.931 300.304 450.291 301.344 451.827 302.112C453.395 302.848 455.075 303.216 456.867 303.216C458.947 303.216 460.915 302.704 462.771 301.68C464.627 300.624 466.403 299.008 468.099 296.832V300.384C464.867 304.288 461.043 306.24 456.627 306.24ZM467.571 291.84H459.987V289.248H470.403V306H467.571V291.84ZM493.578 270.96H496.842V300.336C496.842 301.584 497.066 302.4 497.514 302.784C497.962 303.168 498.506 303.36 499.146 303.36C499.722 303.36 500.298 303.296 500.874 303.168C501.45 303.04 501.946 302.912 502.362 302.784L502.938 305.424C502.33 305.68 501.578 305.888 500.682 306.048C499.818 306.208 499.066 306.288 498.426 306.288C496.954 306.288 495.77 305.856 494.874 304.992C494.01 304.128 493.578 302.944 493.578 301.44V270.96ZM533.968 306.48C532.176 306.48 530.512 306.144 528.976 305.472C527.472 304.768 526.16 303.824 525.04 302.64C523.952 301.424 523.104 300.048 522.496 298.512C521.888 296.944 521.584 295.296 521.584 293.568C521.584 291.776 521.888 290.112 522.496 288.576C523.104 287.008 523.968 285.632 525.088 284.448C526.208 283.232 527.52 282.288 529.024 281.616C530.56 280.912 532.224 280.56 534.016 280.56C535.808 280.56 537.456 280.912 538.96 281.616C540.464 282.288 541.776 283.232 542.896 284.448C544.016 285.632 544.88 287.008 545.488 288.576C546.096 290.112 546.4 291.776 546.4 293.568C546.4 295.296 546.096 296.944 545.488 298.512C544.88 300.048 544.016 301.424 542.896 302.64C541.808 303.824 540.496 304.768 538.96 305.472C537.456 306.144 535.792 306.48 533.968 306.48ZM524.896 293.616C524.896 295.472 525.296 297.168 526.096 298.704C526.928 300.208 528.032 301.408 529.408 302.304C530.784 303.168 532.304 303.6 533.968 303.6C535.632 303.6 537.152 303.152 538.528 302.256C539.904 301.36 541.008 300.144 541.84 298.608C542.672 297.04 543.088 295.344 543.088 293.52C543.088 291.664 542.672 289.968 541.84 288.432C541.008 286.896 539.904 285.68 538.528 284.784C537.152 283.888 535.632 283.44 533.968 283.44C532.304 283.44 530.784 283.904 529.408 284.832C528.064 285.76 526.976 286.992 526.144 288.528C525.312 290.032 524.896 291.728 524.896 293.616ZM580.899 306.48C578.947 306.48 577.139 305.984 575.475 304.992C573.811 303.968 572.515 302.688 571.587 301.152V306H568.659V270.96H571.923V286.224C573.043 284.528 574.387 283.168 575.955 282.144C577.523 281.088 579.347 280.56 581.427 280.56C583.187 280.56 584.755 280.928 586.131 281.664C587.539 282.4 588.739 283.392 589.731 284.64C590.723 285.856 591.475 287.248 591.987 288.816C592.499 290.352 592.755 291.936 592.755 293.568C592.755 295.328 592.451 296.976 591.843 298.512C591.267 300.048 590.435 301.424 589.347 302.64C588.259 303.824 586.995 304.768 585.555 305.472C584.147 306.144 582.595 306.48 580.899 306.48ZM580.131 303.6C581.475 303.6 582.723 303.328 583.875 302.784C585.027 302.24 586.019 301.488 586.851 300.528C587.683 299.568 588.323 298.496 588.771 297.312C589.219 296.096 589.443 294.848 589.443 293.568C589.443 291.808 589.059 290.16 588.291 288.624C587.555 287.056 586.515 285.808 585.171 284.88C583.859 283.92 582.307 283.44 580.515 283.44C579.235 283.44 578.035 283.728 576.915 284.304C575.827 284.88 574.851 285.648 573.987 286.608C573.155 287.536 572.467 288.56 571.923 289.68V297.456C572.051 298.32 572.387 299.136 572.931 299.904C573.475 300.64 574.147 301.28 574.947 301.824C575.779 302.368 576.643 302.8 577.539 303.12C578.435 303.44 579.299 303.6 580.131 303.6ZM613.068 298.8C613.068 297.232 613.516 295.888 614.412 294.768C615.308 293.616 616.54 292.736 618.108 292.128C619.708 291.488 621.548 291.168 623.628 291.168C624.844 291.168 626.108 291.264 627.42 291.456C628.732 291.648 629.9 291.936 630.924 292.32V290.208C630.924 288.096 630.3 286.416 629.052 285.168C627.804 283.92 626.076 283.296 623.868 283.296C622.524 283.296 621.196 283.552 619.884 284.064C618.604 284.544 617.26 285.264 615.852 286.224L614.604 283.92C616.236 282.8 617.836 281.968 619.404 281.424C620.972 280.848 622.572 280.56 624.204 280.56C627.276 280.56 629.708 281.44 631.5 283.2C633.292 284.96 634.188 287.392 634.188 290.496V302.064C634.188 302.512 634.284 302.848 634.476 303.072C634.668 303.264 634.972 303.376 635.388 303.408V306C635.036 306.032 634.732 306.064 634.476 306.096C634.22 306.128 634.028 306.128 633.9 306.096C633.1 306.064 632.492 305.808 632.076 305.328C631.66 304.848 631.436 304.336 631.404 303.792L631.356 301.968C630.236 303.408 628.78 304.528 626.988 305.328C625.196 306.096 623.372 306.48 621.516 306.48C619.916 306.48 618.46 306.144 617.148 305.472C615.868 304.768 614.86 303.84 614.124 302.688C613.42 301.504 613.068 300.208 613.068 298.8ZM629.82 300.72C630.172 300.272 630.444 299.84 630.636 299.424C630.828 299.008 630.924 298.64 630.924 298.32V294.672C629.836 294.256 628.7 293.936 627.516 293.712C626.364 293.488 625.196 293.376 624.012 293.376C621.676 293.376 619.788 293.84 618.348 294.768C616.908 295.696 616.188 296.96 616.188 298.56C616.188 299.488 616.428 300.368 616.908 301.2C617.388 302 618.092 302.672 619.02 303.216C619.948 303.728 621.036 303.984 622.284 303.984C623.852 303.984 625.308 303.68 626.652 303.072C628.028 302.464 629.084 301.68 629.82 300.72ZM658.185 270.96H661.449V300.336C661.449 301.584 661.673 302.4 662.121 302.784C662.569 303.168 663.113 303.36 663.753 303.36C664.329 303.36 664.905 303.296 665.481 303.168C666.057 303.04 666.553 302.912 666.969 302.784L667.545 305.424C666.937 305.68 666.185 305.888 665.289 306.048C664.425 306.208 663.673 306.288 663.033 306.288C661.561 306.288 660.377 305.856 659.481 304.992C658.617 304.128 658.185 302.944 658.185 301.44V270.96ZM713.916 288.72C713.916 286.64 714.268 284.608 714.972 282.624C715.708 280.608 716.764 278.784 718.14 277.152C719.516 275.488 721.212 274.176 723.228 273.216C725.244 272.224 727.532 271.728 730.092 271.728C733.132 271.728 735.724 272.432 737.868 273.84C740.044 275.216 741.644 276.992 742.668 279.168L740.028 280.8C739.292 279.296 738.364 278.112 737.244 277.248C736.124 276.352 734.924 275.712 733.644 275.328C732.396 274.944 731.148 274.752 729.9 274.752C727.852 274.752 726.044 275.168 724.476 276C722.908 276.8 721.58 277.888 720.492 279.264C719.436 280.608 718.636 282.128 718.092 283.824C717.548 285.488 717.276 287.184 717.276 288.912C717.276 290.8 717.596 292.608 718.236 294.336C718.876 296.064 719.772 297.6 720.924 298.944C722.076 300.256 723.42 301.312 724.956 302.112C726.524 302.88 728.22 303.264 730.044 303.264C731.324 303.264 732.636 303.04 733.98 302.592C735.324 302.144 736.572 301.456 737.724 300.528C738.908 299.6 739.852 298.4 740.556 296.928L743.34 298.368C742.636 300.064 741.548 301.504 740.076 302.688C738.604 303.872 736.956 304.768 735.132 305.376C733.34 305.984 731.58 306.288 729.852 306.288C727.516 306.288 725.372 305.792 723.42 304.8C721.468 303.776 719.772 302.432 718.332 300.768C716.924 299.072 715.836 297.184 715.068 295.104C714.3 292.992 713.916 290.864 713.916 288.72ZM775.862 306.48C774.07 306.48 772.406 306.144 770.87 305.472C769.366 304.768 768.054 303.824 766.934 302.64C765.846 301.424 764.998 300.048 764.39 298.512C763.782 296.944 763.478 295.296 763.478 293.568C763.478 291.776 763.782 290.112 764.39 288.576C764.998 287.008 765.862 285.632 766.982 284.448C768.102 283.232 769.414 282.288 770.918 281.616C772.454 280.912 774.118 280.56 775.91 280.56C777.702 280.56 779.35 280.912 780.854 281.616C782.358 282.288 783.67 283.232 784.79 284.448C785.91 285.632 786.774 287.008 787.382 288.576C787.99 290.112 788.294 291.776 788.294 293.568C788.294 295.296 787.99 296.944 787.382 298.512C786.774 300.048 785.91 301.424 784.79 302.64C783.702 303.824 782.39 304.768 780.854 305.472C779.35 306.144 777.686 306.48 775.862 306.48ZM766.79 293.616C766.79 295.472 767.19 297.168 767.99 298.704C768.822 300.208 769.926 301.408 771.302 302.304C772.678 303.168 774.198 303.6 775.862 303.6C777.526 303.6 779.046 303.152 780.422 302.256C781.798 301.36 782.902 300.144 783.734 298.608C784.566 297.04 784.982 295.344 784.982 293.52C784.982 291.664 784.566 289.968 783.734 288.432C782.902 286.896 781.798 285.68 780.422 284.784C779.046 283.888 777.526 283.44 775.862 283.44C774.198 283.44 772.678 283.904 771.302 284.832C769.958 285.76 768.87 286.992 768.038 288.528C767.206 290.032 766.79 291.728 766.79 293.616ZM831.577 306H828.313V292.032C828.313 289.088 827.881 286.944 827.017 285.6C826.153 284.224 824.793 283.536 822.937 283.536C821.657 283.536 820.393 283.856 819.145 284.496C817.897 285.104 816.793 285.952 815.833 287.04C814.905 288.096 814.233 289.312 813.817 290.688V306H810.553V280.992H813.529V286.656C814.201 285.44 815.081 284.384 816.169 283.488C817.257 282.56 818.489 281.84 819.865 281.328C821.241 280.816 822.665 280.56 824.137 280.56C825.513 280.56 826.681 280.816 827.641 281.328C828.601 281.84 829.369 282.576 829.945 283.536C830.521 284.464 830.937 285.6 831.193 286.944C831.449 288.256 831.577 289.728 831.577 291.36V306ZM863.545 306.48C861.497 306.48 859.593 306.144 857.833 305.472C856.073 304.8 854.553 303.776 853.273 302.4L854.617 300.096C856.025 301.408 857.433 302.368 858.841 302.976C860.281 303.552 861.801 303.84 863.401 303.84C865.353 303.84 866.937 303.456 868.153 302.688C869.369 301.888 869.977 300.752 869.977 299.28C869.977 298.288 869.673 297.536 869.065 297.024C868.489 296.48 867.641 296.048 866.521 295.728C865.433 295.376 864.121 295.008 862.585 294.624C860.857 294.144 859.401 293.648 858.217 293.136C857.065 292.592 856.185 291.92 855.577 291.12C855.001 290.288 854.713 289.216 854.713 287.904C854.713 286.272 855.113 284.928 855.913 283.872C856.745 282.784 857.865 281.968 859.273 281.424C860.713 280.848 862.313 280.56 864.073 280.56C865.993 280.56 867.689 280.864 869.161 281.472C870.633 282.08 871.833 282.928 872.761 284.016L871.177 286.224C870.281 285.2 869.209 284.448 867.961 283.968C866.745 283.456 865.385 283.2 863.881 283.2C862.857 283.2 861.881 283.344 860.953 283.632C860.025 283.888 859.257 284.336 858.649 284.976C858.073 285.584 857.785 286.432 857.785 287.52C857.785 288.416 858.009 289.12 858.457 289.632C858.905 290.112 859.577 290.528 860.473 290.88C861.369 291.2 862.473 291.552 863.785 291.936C865.673 292.448 867.321 292.976 868.729 293.52C870.137 294.032 871.225 294.704 871.993 295.536C872.761 296.368 873.145 297.536 873.145 299.04C873.145 301.376 872.265 303.2 870.505 304.512C868.745 305.824 866.425 306.48 863.545 306.48ZM895.101 295.68V280.992H898.365V295.104C898.365 297.952 898.845 300.08 899.805 301.488C900.797 302.896 902.253 303.6 904.173 303.6C905.453 303.6 906.685 303.328 907.869 302.784C909.085 302.208 910.157 301.408 911.085 300.384C912.013 299.328 912.717 298.112 913.197 296.736V280.992H916.461V302.064C916.461 302.512 916.557 302.848 916.749 303.072C916.941 303.264 917.229 303.376 917.613 303.408V306C917.229 306.032 916.925 306.048 916.701 306.048C916.477 306.08 916.269 306.096 916.077 306.096C915.437 306.032 914.877 305.776 914.397 305.328C913.949 304.88 913.709 304.336 913.677 303.696L913.581 300.336C912.493 302.256 911.005 303.76 909.117 304.848C907.261 305.936 905.245 306.48 903.069 306.48C900.445 306.48 898.461 305.568 897.117 303.744C895.773 301.92 895.101 299.232 895.101 295.68ZM940.785 270.96H944.049V300.336C944.049 301.584 944.273 302.4 944.721 302.784C945.169 303.168 945.713 303.36 946.353 303.36C946.929 303.36 947.505 303.296 948.081 303.168C948.657 303.04 949.153 302.912 949.569 302.784L950.145 305.424C949.537 305.68 948.785 305.888 947.889 306.048C947.025 306.208 946.273 306.288 945.633 306.288C944.161 306.288 942.977 305.856 942.081 304.992C941.217 304.128 940.785 302.944 940.785 301.44V270.96ZM982.519 304.8C982.263 304.896 981.863 305.072 981.319 305.328C980.775 305.584 980.119 305.808 979.351 306C978.583 306.192 977.751 306.288 976.855 306.288C975.927 306.288 975.047 306.112 974.215 305.76C973.415 305.408 972.775 304.88 972.295 304.176C971.815 303.44 971.575 302.544 971.575 301.488V283.584H968.119V280.992H971.575V272.544H974.839V280.992H980.599V283.584H974.839V300.576C974.903 301.472 975.223 302.144 975.799 302.592C976.407 303.04 977.095 303.264 977.863 303.264C978.759 303.264 979.575 303.12 980.311 302.832C981.047 302.512 981.495 302.288 981.655 302.16L982.519 304.8ZM1011.6 306.48C1009.56 306.48 1007.65 306.144 1005.89 305.472C1004.13 304.8 1002.61 303.776 1001.33 302.4L1002.68 300.096C1004.08 301.408 1005.49 302.368 1006.9 302.976C1008.34 303.552 1009.86 303.84 1011.46 303.84C1013.41 303.84 1015 303.456 1016.21 302.688C1017.43 301.888 1018.04 300.752 1018.04 299.28C1018.04 298.288 1017.73 297.536 1017.12 297.024C1016.55 296.48 1015.7 296.048 1014.58 295.728C1013.49 295.376 1012.18 295.008 1010.64 294.624C1008.92 294.144 1007.46 293.648 1006.28 293.136C1005.12 292.592 1004.24 291.92 1003.64 291.12C1003.06 290.288 1002.77 289.216 1002.77 287.904C1002.77 286.272 1003.17 284.928 1003.97 283.872C1004.8 282.784 1005.92 281.968 1007.33 281.424C1008.77 280.848 1010.37 280.56 1012.13 280.56C1014.05 280.56 1015.75 280.864 1017.22 281.472C1018.69 282.08 1019.89 282.928 1020.82 284.016L1019.24 286.224C1018.34 285.2 1017.27 284.448 1016.02 283.968C1014.8 283.456 1013.44 283.2 1011.94 283.2C1010.92 283.2 1009.94 283.344 1009.01 283.632C1008.08 283.888 1007.32 284.336 1006.71 284.976C1006.13 285.584 1005.84 286.432 1005.84 287.52C1005.84 288.416 1006.07 289.12 1006.52 289.632C1006.96 290.112 1007.64 290.528 1008.53 290.88C1009.43 291.2 1010.53 291.552 1011.84 291.936C1013.73 292.448 1015.38 292.976 1016.79 293.52C1018.2 294.032 1019.28 294.704 1020.05 295.536C1020.82 296.368 1021.2 297.536 1021.2 299.04C1021.2 301.376 1020.32 303.2 1018.56 304.512C1016.8 305.824 1014.48 306.48 1011.6 306.48Z" fill="#303030"/>
<path opacity="0.864" fill-rule="evenodd" clip-rule="evenodd" d="M206.579 0.0241548C205.139 -0.0405291 203.703 0.0247026 202.274 0.219811C201.261 1.30226 200.478 2.54139 199.927 3.93728C201.116 6.94678 203.206 7.92507 206.188 6.87212C207.761 6.11861 209.389 5.53164 211.079 5.11122C260.005 9.16928 301.875 28.2131 336.69 62.2428C336.201 67.236 338.353 69.1276 343.147 67.9169C344.634 66.316 345.092 64.4248 344.517 62.2428C344.192 61.8515 343.863 61.4602 343.538 61.0689C341.738 60.5136 339.915 60.057 338.06 59.6993C302.341 25.2526 259.559 6.20873 209.709 2.56769C208.363 2.06919 207.322 1.22134 206.579 0.0241548Z" fill="#3353EA"/>
<path opacity="0.867" fill-rule="evenodd" clip-rule="evenodd" d="M212.449 11.7637C209.279 11.273 207.193 12.5774 206.188 15.6768C207.205 18.2052 209.029 19.3139 211.666 19.003C213.599 18.2935 215.556 17.7066 217.536 17.2421C262.513 22.5458 300.666 41.3289 331.995 73.591C332.683 75.3664 333.204 77.1927 333.56 79.0694C334.695 80.891 336.323 81.4779 338.451 80.8303C339.406 80.5274 340.122 79.9405 340.603 79.0694C340.987 77.3476 340.791 75.717 340.017 74.178C338.326 73.186 336.503 72.5337 334.538 72.2214C301.883 38.9388 262.231 19.6342 215.579 14.3072C214.46 13.5125 213.419 12.6647 212.449 11.7637Z" fill="#3353EA"/>
<path opacity="0.855" fill-rule="evenodd" clip-rule="evenodd" d="M124.795 14.5028C123.332 14.4013 121.895 14.5318 120.491 14.8941C119.622 15.9323 118.968 17.1062 118.534 18.4159C104.059 25.5186 90.3634 33.8015 77.4462 43.2642C51.5257 63.5733 31.5687 88.6173 17.5754 118.396C18.7376 119.371 20.0446 120.154 21.4885 120.744C24.3138 122.16 27.1821 123.334 30.0974 124.266C51.737 79.0814 85.7812 47.1895 132.23 28.59C133.404 31.9815 134.578 35.3726 135.752 38.7641C151.772 33.3816 168.207 29.9252 185.057 28.3943C225.171 25.7691 261.954 35.4869 295.407 57.5471C293.854 60.0785 292.222 62.5567 290.516 64.9821C261.465 45.6677 229.44 36.3415 194.449 37.0032C194.836 41.4716 194.965 45.9717 194.84 50.5035C232.39 50.3446 265.652 62.0186 294.625 85.526C295.947 86.8611 296.534 88.4913 296.386 90.4174C297.876 92.7206 299.896 93.3076 302.451 92.1783C304.912 89.8793 304.912 87.5314 302.451 85.1346C300.393 85.1628 298.436 84.7715 296.581 83.9607C267.808 60.3012 234.679 48.3662 197.188 48.1556C197.188 45.1554 197.188 42.1556 197.188 39.1554C231.404 39.4102 262.647 49.0627 290.907 68.1126C293.858 64.6318 296.534 60.9144 298.929 56.9602C257.97 29.3582 213.099 19.9667 164.318 28.7857C155.2 30.6413 146.2 32.9238 137.317 35.6336C136.143 32.2421 134.969 28.851 133.795 25.4595C93.0244 40.8584 61.1324 67.0764 38.1193 104.113C34.7892 109.727 31.6587 115.466 28.7278 121.331C26.3721 120.046 23.9577 118.872 21.4885 117.809C21.1481 117.04 21.2107 116.257 21.6842 115.461C42.6272 73.5835 74.2609 42.6045 116.577 22.5247C117.591 22.0834 118.632 21.7573 119.708 21.5464C125.257 23.6233 127.538 21.7972 126.556 16.068C126.008 15.4535 125.421 14.9318 124.795 14.5028Z" fill="#3353EA"/>
<path opacity="0.854" fill-rule="evenodd" clip-rule="evenodd" d="M186.622 34.4596C185.699 34.3958 184.787 34.4608 183.883 34.6553C182.291 35.8538 180.596 36.8975 178.796 37.7858C165.269 39.6351 152.093 42.8963 139.274 47.5686C139.094 47.7306 138.965 47.9262 138.882 48.1555C140.135 51.3889 141.308 54.6498 142.404 57.9383C142.275 58.1993 142.142 58.46 142.013 58.721C103.433 74.9299 75.4545 102.061 58.0763 140.114C57.8572 140.318 57.595 140.449 57.2937 140.505C54.668 139.485 52.1245 138.312 49.6631 136.983C65.3939 101.948 90.1757 75.3388 124.012 57.1557C124.142 56.8947 124.275 56.6341 124.404 56.3731C122.518 52.6048 120.628 48.8219 118.73 45.025C118.511 44.8208 118.248 44.6905 117.947 44.6337C73.2045 68.647 43.4647 105.039 28.7279 153.81C27.3975 154.538 26.2235 155.451 25.2061 156.549C24.5996 161.422 26.6187 163.183 31.2714 161.832C32.4689 161.045 33.1224 159.937 33.228 158.506C32.7428 156.852 32.2184 155.222 31.6628 153.614C45.8674 107.202 74.0419 72.1144 116.186 48.3512C116.578 48.0902 116.969 48.0902 117.36 48.3512C118.812 50.6705 120.119 53.0837 121.273 55.5905C88.5087 73.8108 64.1808 99.8984 48.2935 133.853C47.4757 135.484 46.8887 137.18 46.5326 138.94C50.7118 140.443 54.8206 142.138 58.859 144.027C76.468 104.112 105.492 76.0033 145.926 59.6993C144.662 56.3641 143.359 53.0379 142.013 49.7208C143.891 48.4619 145.977 47.614 148.274 47.1773C158.565 44.8329 168.869 42.55 179.188 40.3293C180.71 40.6987 182.146 41.2857 183.492 42.0902C188.368 42.701 190.062 40.6791 188.579 36.0249C187.91 35.4821 187.256 34.9601 186.622 34.4596Z" fill="#3353EA"/>
<path opacity="0.868" fill-rule="evenodd" clip-rule="evenodd" d="M197.97 56.7644C197.019 56.7734 196.107 56.9691 195.231 57.3514C194.163 58.2874 192.989 59.07 191.709 59.6992C179.32 60.5249 167.189 62.7425 155.317 66.3516C155.114 66.5711 154.981 66.8321 154.926 67.1342C155.892 70.4298 156.937 73.691 158.056 76.917C150.668 80.4157 143.233 83.8068 135.751 87.0911C133.963 87.4382 132.265 87.1772 130.664 86.3085C128.837 84.7366 128.579 82.9103 129.882 80.8301C129.22 77.6421 127.264 76.4682 124.012 77.3083C123.425 77.8953 122.838 78.4822 122.251 79.0692C121.789 80.5808 121.073 81.9504 120.099 83.178C74.871 115.268 54.0689 159.16 57.6846 214.855C59.2303 228.738 62.5564 242.173 67.6631 255.16C66.8139 257.242 66.7474 259.329 67.4674 261.421C68.9661 262.561 70.5314 263.605 72.1632 264.551C88.8174 296.597 113.928 319.358 147.491 332.835C147.913 333.209 148.371 333.535 148.86 333.814C149.831 337.266 151.983 338.374 155.317 337.14C157.794 335.001 157.923 332.718 155.708 330.292C154.945 329.763 154.096 329.502 153.165 329.509C151.443 330.109 149.682 330.305 147.882 330.096C114.413 316.714 89.7605 293.887 73.9241 261.616C75.1058 257.766 77.5828 256.658 81.359 258.29C85.3152 257.422 86.2935 255.205 84.2938 251.638C82.9203 250.821 81.6173 249.908 80.3807 248.899C67.8626 217.053 67.7961 185.226 80.1851 153.419C80.3142 153.288 80.4472 153.158 80.5764 153.027C83.2021 154.098 85.8082 155.206 88.4026 156.353C78.1972 183.971 77.5437 211.82 86.4461 239.899C85.4169 241.599 85.0921 243.425 85.4678 245.377C86.9743 247.681 88.9935 248.268 91.5331 247.138C92.9771 245.505 93.4349 243.613 92.9027 241.464C92.1084 240.588 91.1301 240.002 89.9679 239.703C89.1383 239.026 88.5513 238.178 88.207 237.159C81.1046 214.447 80.7133 191.621 87.033 168.68C88.6061 164.116 90.0383 159.55 91.3375 154.984C87.4126 153.176 83.4369 151.48 79.4024 149.897C79.1716 149.979 78.9759 150.109 78.8155 150.288C65.2917 183.656 65.0961 217.113 78.2285 250.66C77.4263 256.373 74.7497 257.482 70.2066 253.986C58.9251 226.447 56.5772 198.142 63.163 169.071C70.4375 139.048 85.8943 114.2 109.533 94.526C113.337 91.376 117.25 88.3762 121.273 85.5259C125.174 83.6507 127.522 84.8246 128.316 89.0477C128.148 90.0784 127.82 91.0567 127.338 91.9825C111.784 102.582 98.8702 115.756 88.5983 131.505C88.4222 132.324 88.7509 132.911 89.5766 133.266C93.0045 135.272 96.3306 137.424 99.555 139.723C125.616 101.419 161.946 83.3537 208.536 85.5259C220.071 86.4858 231.157 89.2249 241.797 93.7434C242.603 94.726 243.19 95.8346 243.558 97.0696C245.996 98.8031 248.215 98.5421 250.21 96.287C251.118 93.9219 250.531 92.0303 248.449 90.6129C246.098 90.5613 243.75 90.5613 241.406 90.6129C202.662 76.8446 166.012 81.0187 131.447 103.135C118.573 112.16 107.749 123.182 98.9681 136.201C96.4363 134.647 93.9593 133.017 91.5331 131.309C101.038 117.239 112.777 105.369 126.751 95.7C129.189 94.9858 131.666 94.4642 134.186 94.1347C135.36 92.4392 136.534 90.7432 137.708 89.0477C145.225 85.484 152.793 82.0271 160.404 78.6779C160.533 78.4169 160.666 78.1563 160.795 77.8953C159.637 74.5589 158.721 71.1674 158.056 67.7212C169.044 64.9311 180.197 63.1048 191.513 62.2428C193.967 62.676 195.47 64.1105 196.014 66.5472C195.403 68.2596 194.558 69.8248 193.47 71.243C192.993 74.9405 194.624 76.5711 198.361 76.1344C199.5 75.6491 200.545 74.9972 201.492 74.1778C232.644 74.8203 259.841 85.4507 283.081 106.07C283.398 107.836 283.918 109.531 284.646 111.157C287.588 113.394 289.936 112.873 291.689 109.592C292.143 107.696 291.556 106.195 289.929 105.091C287.921 104.749 285.965 104.227 284.059 103.526C260.521 83.2821 233.13 72.4556 201.883 71.0473C197.258 68.0663 197.258 65.1964 201.883 62.4384C221.007 62.82 239.269 66.9937 256.667 74.9604C257.962 76.0475 258.807 77.4171 259.21 79.0692C261.128 80.5441 263.151 80.609 265.276 79.2649C266.908 76.8509 266.645 74.6333 264.493 72.6126C262.732 72.2792 261.038 72.4748 259.406 73.1995C241.371 65.0708 222.455 60.5707 202.666 59.6992C201.128 58.6083 199.563 57.63 197.97 56.7644Z" fill="#3353EA"/>
<path opacity="0.866" fill-rule="evenodd" clip-rule="evenodd" d="M41.0539 155.767C38.3186 155.831 36.7534 157.2 36.3581 159.875C36.9921 161.668 37.5164 163.494 37.9234 165.354C27.0723 219.853 39.6608 268.05 75.685 309.944C76.3268 311.709 76.7181 313.535 76.859 315.422C77.0429 315.982 77.3677 316.438 77.8373 316.792C79.7547 317.471 81.7112 317.993 83.7069 318.357C104.407 338.04 128.54 351.997 156.1 360.227C155.231 362.716 154.515 365.26 153.948 367.858C153.787 368.037 153.591 368.167 153.361 368.249C113.873 356.85 81.9813 334.675 57.6847 301.726C57.0077 299.262 56.3542 296.783 55.7281 294.291C54.0337 293.248 52.3354 292.204 50.641 291.161C31.6115 260.062 23.2609 226.278 25.597 189.811C26.0784 188.546 26.861 187.502 27.9449 186.68C29.5219 183.187 28.4771 180.969 24.8144 180.028C21.2691 180.458 19.9661 182.414 20.9013 185.898C21.9344 187.315 22.6544 188.88 23.0535 190.593C20.9013 226.855 29.1854 260.508 47.9019 291.552C49.8662 295.313 48.888 297.921 44.967 299.378C42.8383 299.067 41.2104 298.024 40.0756 296.248C16.0529 254.634 8.42235 210.156 17.1838 162.81C12.8716 161.947 8.56713 161.034 4.27052 160.071C-7.99321 223.318 6.15665 279.797 46.7279 329.509C73.4193 360.378 106.485 381.444 145.926 392.706C147.718 393.716 149.283 395.019 150.621 396.619C153.975 397.68 156.065 396.506 156.882 393.098C155.681 388.785 153.204 387.874 149.447 390.358C111.314 380.368 78.9016 360.996 52.2063 332.248C24.3957 299.693 7.9606 261.996 2.90093 219.159C1.24959 200.493 2.22787 181.971 5.83577 163.593C6.09795 163.463 6.35622 163.332 6.61839 163.202C8.82931 163.683 11.0481 164.14 13.2707 164.571C13.7325 165.033 13.9946 165.62 14.0533 166.332C6.24274 213.432 14.3977 257.52 38.5104 298.596C38.7451 299.236 38.9408 299.888 39.0973 300.552C38.0134 305.533 39.97 307.424 44.967 306.226C46.0001 305.218 46.587 303.979 46.7279 302.509C47.0331 301.81 47.491 301.223 48.0975 300.748C50.4963 300.252 52.715 300.644 54.7498 301.922C79.9308 336.922 113.455 360.074 155.317 371.38C156.921 367.052 158.029 362.617 158.643 358.075C130.344 350.325 105.824 336.238 85.0765 315.813C83.7148 311.17 85.4757 309.148 90.3593 309.748C94.1119 312.455 97.6338 315.455 100.925 318.748C134.394 345.161 172.48 356.509 215.188 352.792C238.729 349.685 260.643 341.989 280.928 329.705C283.061 329.665 285.147 329.404 287.189 328.922C289.69 323.858 288.125 321.51 282.494 321.879C281.934 322.061 281.476 322.387 281.124 322.857C280.932 324.744 280.216 326.374 278.972 327.748C236.988 353.094 192.77 357.79 146.317 341.836C126.231 334.376 108.555 323.224 93.2941 308.378C92.8284 306.86 92.5663 305.295 92.5115 303.683C91.2006 301.889 89.4397 301.302 87.2288 301.922C86.6418 302.15 86.1213 302.476 85.6635 302.9C85.0413 304.391 84.7126 305.956 84.6852 307.596C82.7874 310.296 80.5021 310.622 77.8373 308.574C42.1887 267.271 29.7332 219.727 40.4669 165.941C41.1204 164.767 42.0322 163.854 43.2061 163.202C45.4444 159.814 44.7283 157.336 41.0539 155.767Z" fill="#3353EA"/>
<path opacity="0.876" fill-rule="evenodd" clip-rule="evenodd" d="M48.8797 178.463C45.2326 178.522 43.6009 180.348 43.9883 183.941C45.3539 185.365 46.07 187.06 46.1405 189.028C43.6204 226.777 53.3367 260.952 75.2932 291.552C75.6846 293.639 76.0759 295.726 76.4672 297.813C81.4447 300.801 83.7926 299.366 83.5108 293.508C83.186 292.921 82.7282 292.465 82.1412 292.139C79.8599 291.684 77.9698 290.575 76.4672 288.813C55.1407 258.551 45.8783 224.898 48.684 187.854C49.451 186.695 50.3627 185.651 51.4232 184.724C52.4093 181.869 51.5602 179.782 48.8797 178.463Z" fill="#3353EA"/>
<path opacity="0.875" fill-rule="evenodd" clip-rule="evenodd" d="M99.3593 257.899C95.5792 257.967 93.9474 259.924 94.4679 263.769C95.8179 265.195 97.4497 266.173 99.3593 266.703C112.5 285.193 129.326 299.281 149.839 308.965C151.236 310.458 152.539 312.023 153.752 313.661C156.996 314.714 159.081 313.605 160.013 310.335C159.762 307.801 158.393 306.366 155.904 306.03C154.319 306.667 152.687 306.863 151.013 306.617C130.981 297.545 114.742 283.914 102.294 265.725C102.165 263.899 102.032 262.073 101.903 260.247C101.32 259.146 100.471 258.363 99.3593 257.899Z" fill="#3353EA"/>
<path opacity="0.86" fill-rule="evenodd" clip-rule="evenodd" d="M289.146 273.16C287.498 272.995 285.933 273.256 284.45 273.943C283.308 275.147 283.049 276.517 283.668 278.052C283.472 278.639 283.276 279.226 283.081 279.813C262.74 300.972 237.892 313.234 208.536 316.596C208.95 320.902 209.404 325.206 209.905 329.509C210.109 329.907 210.433 330.168 210.883 330.292C244.955 326.237 273.388 311.563 296.19 286.269C297.97 285.369 299.794 284.586 301.668 283.921C303.785 281.603 303.652 279.386 301.277 277.269C299.034 276.283 297.144 276.739 295.603 278.639C295.305 280.794 294.785 282.881 294.037 284.9C272.343 308.838 245.409 323.056 213.231 327.553C212.339 327.443 211.881 326.921 211.862 325.988C211.47 323.647 211.341 321.299 211.47 318.944C234.961 315.575 255.896 306.51 274.276 291.748C277.786 288.629 281.179 285.368 284.45 281.965C286.219 281.254 288.046 280.732 289.929 280.4C291.983 277.732 291.725 275.319 289.146 273.16Z" fill="#3353EA"/>
<path opacity="0.867" fill-rule="evenodd" clip-rule="evenodd" d="M98.577 275.9C93.7286 275.46 91.9677 277.547 93.2942 282.161C95.0434 283.296 96.9374 284.144 98.9683 284.704C121.171 310.093 149.088 325.159 182.709 329.901C182.318 333.814 181.926 337.727 181.535 341.64C215.583 344.759 247.021 337.259 275.841 319.14C279.344 316.812 282.732 314.334 286.016 311.705C288.101 311.183 290.191 310.661 292.277 310.139C294.339 307.95 294.339 305.733 292.277 303.487C290.144 302.527 288.254 302.853 286.603 304.465C286.113 306.323 285.397 308.084 284.45 309.748C255.18 332.241 222.048 342.024 185.057 339.097C184.658 338.893 184.4 338.567 184.274 338.118C184.63 334.917 185.022 331.721 185.448 328.531C185.319 328.335 185.186 328.14 185.057 327.944C151.028 323.489 122.92 308.359 100.729 282.552C100.6 280.987 100.467 279.421 100.338 277.856C99.9387 277 99.3518 276.348 98.577 275.9Z" fill="#3353EA"/>
<path opacity="0.871" fill-rule="evenodd" clip-rule="evenodd" d="M336.494 306.03C333.955 305.415 332.061 306.197 330.82 308.378C330.797 310.292 330.405 312.118 329.646 313.857C298.807 348.453 260.196 368.28 213.818 373.336C211.814 372.498 209.795 371.715 207.753 370.988C205.956 371.233 204.524 372.081 203.448 373.532C193.395 373.719 183.354 373.523 173.317 372.945C173.665 369.939 174.057 366.939 174.491 363.945C217.152 368.969 256.283 359.643 291.885 335.966C294.103 335.574 296.318 335.183 298.537 334.792C300.008 333.327 300.466 331.566 299.907 329.509C298.369 327.345 296.346 326.758 293.841 327.748C293.235 328.223 292.777 328.81 292.472 329.509C292.542 331.392 291.822 332.892 290.319 334.009C254.651 357.795 215.52 366.795 172.926 361.01C171.728 365.546 170.946 370.177 170.578 374.901C181.519 375.792 192.476 376.379 203.448 376.662C207.522 378.975 207.913 381.714 204.622 384.88C145.749 386.14 96.9016 364.812 58.0755 320.9C57.6568 319.498 57.3947 318.063 57.2929 316.596C56.4359 314.047 54.675 313.069 52.0102 313.661C48.9227 315.578 48.5314 317.926 50.8363 320.705C52.7224 321.37 54.5498 322.153 56.3146 323.052C95.3598 366.562 144.274 388.214 203.057 388.01C204.54 388.319 205.714 389.102 206.579 390.358C209.236 391.094 211.321 390.311 212.84 388.01C244.227 384.723 273.313 374.809 300.102 358.271C301.797 358.14 303.495 358.01 305.189 357.879C307.005 357.316 307.788 356.077 307.537 354.162C307.788 352.247 307.005 351.007 305.189 350.444C303.495 349.994 301.996 350.32 300.689 351.423C300.063 353.178 299.214 354.809 298.146 356.314C272.62 372.475 244.771 381.933 214.6 384.684C211.994 384.559 210.1 383.318 208.926 380.967C209.603 378.429 211.169 376.734 213.622 375.88C260.881 370.97 300.141 350.883 331.407 315.618C333.09 314.533 334.917 313.751 336.886 313.27C339.367 310.731 339.237 308.318 336.494 306.03Z" fill="#3353EA"/>
<path opacity="0.869" fill-rule="evenodd" clip-rule="evenodd" d="M323.191 351.031C319.395 350.586 317.505 352.282 317.517 356.118C317.211 356.817 316.754 357.404 316.147 357.879C275.685 387.271 230.422 400.051 180.362 396.228C179.09 395.61 177.916 394.827 176.84 393.88C173.052 392.413 171.029 393.649 170.775 397.597C171.393 399.636 172.762 400.81 174.883 401.119C176.918 400.074 179.07 399.292 181.34 398.771C231.878 402.442 277.466 389.333 318.104 359.444C320.017 358.966 321.974 358.705 323.973 358.662C326.713 355.745 326.45 353.201 323.191 351.031Z" fill="#3353EA"/>
</svg>
